<?xml version="1.0" encoding="UTF-8"?>
<!DOCTYPE svg PUBLIC "-//W3C//DTD SVG 1.1//EN" "http://www.w3.org/Graphics/SVG/1.1/DTD/svg11.dtd">
<!-- Creator: CorelDRAW X6 -->
<svg xmlns="http://www.w3.org/2000/svg" xml:space="preserve" width="69.4444in" height="41.6667in" version="1.1" style="shape-rendering:geometricPrecision; text-rendering:geometricPrecision; image-rendering:optimizeQuality; fill-rule:evenodd; clip-rule:evenodd"
viewBox="0 0 69444 41667"
 xmlns:xlink="http://www.w3.org/1999/xlink">
 <defs>
  <style type="text/css">
   <![CDATA[
    .fil3 {fill:none}
    .fil2 {fill:url(#id0)}
    .fil1 {fill:url(#id1)}
    .fil0 {fill:url(#id2)}
    .fil4 {fill:url(#id3)}
   ]]>
  </style>
  <radialGradient id="id0" gradientUnits="userSpaceOnUse" cx="34947.6" cy="20789.1" r="13087.9" fx="34947.6" fy="20789.1">
   <stop offset="0" style="stop-color:#CAEBFB"/>
   <stop offset="1" style="stop-color:#A1CFEF"/>
  </radialGradient>
  <radialGradient id="id1" gradientUnits="userSpaceOnUse" xlink:href="#id0" cx="34722.3" cy="20757.9" r="32638.9" fx="34722.3" fy="20757.9">
  </radialGradient>
  <radialGradient id="id2" gradientUnits="userSpaceOnUse" cx="34722.2" cy="20391.5" r="31250" fx="34722.2" fy="20391.5">
   <stop offset="0" style="stop-color:#99DBF8"/>
   <stop offset="1" style="stop-color:#5E9FD6"/>
  </radialGradient>
  <radialGradient id="id3" gradientUnits="userSpaceOnUse" cx="34722.2" cy="27632.5" r="31250" fx="34722.2" fy="27632.5">
   <stop offset="0" style="stop-color:#F1F9FD"/>
   <stop offset="1" style="stop-color:#E7F2FA"/>
  </radialGradient>
 </defs>
 <g id="Layer_x0020_1">
  <metadata id="CorelCorpID_0Corel-Layer"/>
  <path class="fil0" d="M41892 35158c-716,-2109 -2743,-3630 -5132,-3630 -1308,0 -2509,456 -3444,1215 -698,-1761 -3263,-3069 -6323,-3069 -2132,0 -4025,635 -5213,1616 -654,-973 -1780,-1616 -3059,-1616 -16,0 -31,1 -46,1l0 -1c0,-1971 -1618,-3568 -3615,-3568 -431,0 -844,75 -1227,212 -932,-2362 -3476,-4058 -6472,-4058 -1647,0 -3157,513 -4339,1366 -580,-252 -1227,-394 -1911,-394 -384,0 -756,44 -1112,128l0 -23360 69444 0 0 25517 -14 7 0 0 -14 7 0 0 -14 7 0 0 -14 7 0 0 -14 7 0 0 -14 7 0 0 -14 8 0 0 -14 8 0 0 -14 8 0 0 -14 8 0 0 -14 8 0 0 -14 8 0 0 -14 8 0 0 -14 8 0 0c-5,3 -9,5 -14,8l0 0 -14 8 0 0 -14 8 0 0 -14 8 0 0 -14 8 0 0 -14 8 0 0 -14 8 0 0 -14 8 0 0 -13 8 0 0 -13 8 0 0 -13 8 0 0 -13 8 0 0 -13 8 0 0 -13 8 0 0 -13 8 0 0 -13 9 0 0 -13 9 0 0 -13 9 0 0 -13 9 0 0 -13 9 0 0 -13 9 0 0 -13 9 0 0 -13 9 0 0 -13 9 0 0 -13 9 0 0 -13 9 0 0 -13 9 0 0c-4,3 -9,6 -13,9l0 0 -13 9 0 0 -13 9 0 0 -13 9 0 0 -13 9 0 0 -13 9 0 0 -13 9 0 0 -13 9 0 0 -12 9 0 0 -12 9 0 0 -12 9 0 0c-4,3 -8,6 -12,9l0 0 -12 10 0 0 -12 10 0 0 -12 10 0 0 -12 10 0 0 -12 10 0 0c-4,3 -8,6 -12,10l0 0 -12 10 0 0 -12 10 0 0 -12 10 -12 10 -12 10c-599,-310 -1298,-488 -2046,-488 -2021,0 -3694,1300 -3978,2994 -203,282 -373,587 -506,910 -917,-624 -2084,-998 -3355,-998 -1007,0 -1949,235 -2753,643 -635,-404 -1420,-643 -2270,-643 -1761,0 -3244,1026 -3686,2421 -2051,289 -3678,1636 -4068,3355 -136,-7 -273,-12 -412,-12 -1353,0 -2607,335 -3637,906z"/>
  <path class="fil1" d="M39707 37273c-683,-884 -1992,-1481 -3495,-1481 -581,0 -1132,90 -1629,250 -612,-1050 -2068,-1790 -3768,-1790 -1184,0 -2249,359 -2994,931 -356,-79 -730,-122 -1118,-122 -44,0 -88,2 -132,3 -521,-1217 -2198,-2108 -4187,-2108 -1284,0 -2439,372 -3236,963 -345,-51 -705,-81 -1078,-81 -207,0 -409,12 -608,28 -820,-1742 -3385,-3014 -6423,-3014 -1065,0 -2071,157 -2965,435 -1077,-972 -2693,-1590 -4502,-1590 -1344,0 -2583,341 -3573,916l0 -7252c356,-83 728,-128 1112,-128 684,0 1331,142 1911,394 1182,-854 2692,-1366 4339,-1366 2995,0 5539,1696 6472,4058 383,-137 796,-212 1227,-212 1996,0 3615,1598 3615,3568l0 1c16,0 31,-1 46,-1 1279,0 2405,643 3059,1616 1188,-981 3080,-1616 5213,-1616 3060,0 5625,1307 6323,3069 936,-759 2136,-1215 3444,-1215 2390,0 4416,1521 5132,3630 -954,529 -1716,1260 -2185,2115zm29738 -10623c-249,-224 -533,-420 -842,-580 254,-212 537,-398 842,-554l0 1133z"/>
  <path class="fil2" d="M41896 35170c-1,-4 -3,-8 -4,-12 1030,-571 2283,-906 3637,-906 139,0 276,5 412,12 390,-1719 2017,-3066 4068,-3355 442,-1395 1924,-2421 3686,-2421 851,0 1636,239 2270,643 804,-408 1746,-643 2753,-643 1271,0 2438,374 3355,998 133,-322 302,-627 506,-910 284,-1693 1956,-2994 3978,-2994 747,0 1447,178 2046,488 -867,722 -1407,1748 -1407,2885 0,207 18,411 53,609 -135,127 -262,261 -381,403 -621,-189 -1295,-294 -2000,-294 -2160,0 -4031,974 -4948,2395 -950,-347 -1999,-541 -3104,-541 -2908,0 -5438,1333 -6746,3301 -528,-82 -1082,-126 -1654,-126 -245,0 -485,9 -723,24 -736,-243 -1534,-376 -2369,-376 -1253,0 -2426,299 -3426,820z"/>
  <path class="fil3" d="M38439 39489c-250,-217 -546,-374 -869,-455 -396,-623 -1134,-1043 -1982,-1043 -690,0 -1308,279 -1728,718 -539,-445 -1245,-718 -2022,-718 -1125,0 -2105,569 -2635,1413 -533,-272 -1182,-434 -1885,-434 -110,0 -219,4 -326,12 -567,-432 -1329,-752 -2198,-899 -444,-688 -1320,-1157 -2328,-1157 -782,0 -1482,283 -1966,731 -579,-1100 -1861,-1864 -3350,-1864 -1149,0 -2174,455 -2849,1167 -92,-8 -185,-14 -279,-19 0,-5 0,-10 0,-15 0,-2042 -2413,-3697 -5390,-3697 -880,0 -1710,145 -2444,402 -674,-256 -1448,-402 -2272,-402 -1634,0 -3073,573 -3919,1444l0 -4061c990,-575 2228,-916 3573,-916 1808,0 3425,618 4502,1590 894,-278 1900,-435 2965,-435 3038,0 5602,1272 6423,3014 199,-16 401,-28 608,-28 373,0 733,30 1078,81 797,-591 1951,-963 3236,-963 1989,0 3666,891 4187,2108 44,-1 88,-3 132,-3 388,0 762,43 1118,122 745,-572 1810,-931 2994,-931 1700,0 3156,739 3768,1790 498,-160 1049,-250 1629,-250 1503,0 2812,598 3495,1481 470,-855 1231,-1586 2185,-2115 1,4 3,8 4,12 1000,-520 2172,-820 3426,-820 835,0 1633,134 2369,376 238,-15 478,-24 723,-24 572,0 1127,44 1654,126 1308,-1967 3838,-3301 6746,-3301 1105,0 2155,194 3104,541 917,-1421 2788,-2395 4948,-2395 705,0 1380,105 2000,294 119,-142 246,-277 381,-403 -35,-198 -53,-402 -53,-609 0,-1137 541,-2163 1407,-2885l14 8 0 0 14 8 0 0 14 8 0 0c5,3 10,5 14,8l0 0c5,3 10,5 14,8l0 0 14 8 0 0c5,3 10,5 14,8l0 0c5,3 9,5 14,8l0 0 14 8 0 0c5,3 9,5 14,8l0 0 14 8 0 0 14 8 0 0c5,3 9,5 14,8l0 0c5,3 9,5 14,8l0 0c5,3 9,5 14,8l0 0 14 8 0 0 3 2c7,4 14,9 21,13l3 2 0 0 14 8 0 0 14 8 0 0 14 9 0 0 14 9 0 0 14 9 0 0c5,3 9,6 14,9l0 0 13 9 0 0 13 9 0 0 13 9 0 0 13 9 0 0 13 9 0 0 13 9 0 0 13 9 0 0c4,3 9,6 13,9l0 0 13 9 0 0c4,3 9,6 13,9l0 0 13 9 0 0c4,3 9,6 13,9l0 0c4,3 9,6 13,9l0 0 13 9 0 0 13 9 0 0m26 19l0 0 13 9 0 0 13 10 0 0c4,3 8,6 13,10l0 0c4,3 8,6 13,10l0 0 13 10 0 0c4,3 8,6 12,10l0 0 12 10 0 0 12 10 0 0c4,3 8,7 12,10l0 0 12 10 0 0c4,3 8,7 12,10l0 0 12 10 0 0c4,3 8,7 12,10l0 0 12 10 0 0 12 10 0 0 12 10 0 0 12 10 0 0c4,3 8,7 12,10l0 0c4,3 8,7 12,10l0 0c4,3 8,7 12,10l0 0 12 10 0 0 12 10 0 0 12 10 0 5748 -9 -3 0 0 -9 -3 0 0 -9 -3 0 0 -2 0c-6,-2 -11,-3 -17,-4l0 0 -9 -2 0 0 -9 -2 0 0 -9 -2 0 0 -9 -2 0 0 -10 -2 0 0 -10 -2 0 0 -10 -2 0 0 -10 -2 0 0 -10 -2 0 0 -10 -2 0 0 -10 -2 0 0 -10 -2 0 0 -10 -2 0 0 -10 -2 0 0 -10 -2 0 0 -10 -2 0 0 -10 -2 0 0 -10 -2 0 0 -10 -2 0 0 -10 -2 0 0 -10 -2 0 0 -10 -2 0 0 -10 -2 0 0 -10 -2 0 0 -10 -1 0 0 -10 -1 0 0 -10 -1 0 0 -10 -1 0 0 -10 -1 0 0 -10 -1 0 0 -10 -1 0 0 -10 -1 0 0 -10 -1 0 0 -10 -1 0 0 -10 -1 0 0 -10 -1 0 0 -10 -1 0 0 -10 -1 0 0 -10 -1 0 0 -10 -1 0 0 -10 -1 0 0 -10 -1 0 0 -10 -1 0 0 -10 -1 0 0 -10 -1 0 0 -10 -1 0 0 -10 -1 0 0 -10 -1 0 0 -10 0 0 0 -10 0 0 0 -10 0 0 0 -10 0 0 0 -10 0 0 0 -10 0 0 0 -10 0 0 0 -10 0 0 0 -10 0 -10 0 -10 0c-1129,0 -2044,779 -2044,1740 0,20 3,40 4,61 -101,-8 -204,-12 -307,-12 -176,0 -348,12 -517,34 -197,-53 -406,-83 -623,-83 -1006,0 -1852,612 -2108,1444 -487,-494 -1209,-809 -2017,-809 -962,0 -1802,446 -2268,1111 -813,48 -1487,509 -1711,1130 -27,0 -53,-3 -80,-3 -561,0 -1089,88 -1556,242 -99,-1066 -1114,-1905 -2354,-1905 -1306,0 -2364,929 -2364,2075 0,78 7,155 16,232 -139,70 -264,155 -373,250 -395,-538 -1080,-894 -1861,-894 -674,0 -1276,266 -1682,684 -511,-332 -1151,-533 -1848,-533 -1407,0 -2590,808 -2926,1901 -66,-4 -131,-8 -198,-8 -373,0 -724,59 -1038,162 -283,-102 -600,-162 -935,-162 -626,0 -1187,201 -1578,519m30975 -7099c-6,-2 -11,-3 -17,-4"/>
  <path class="fil4" d="M69444 41667l-69444 0 0 -6995c846,-871 2285,-1444 3919,-1444 824,0 1598,146 2272,402 734,-257 1564,-402 2444,-402 2977,0 5390,1655 5390,3697 0,5 0,10 0,15 93,5 187,11 279,19 675,-713 1700,-1167 2849,-1167 1489,0 2771,765 3350,1864 483,-448 1184,-731 1966,-731 1008,0 1884,469 2328,1157 868,148 1630,467 2198,899 107,-8 216,-12 326,-12 703,0 1352,162 1885,434 529,-844 1509,-1413 2635,-1413 777,0 1484,273 2022,718 420,-439 1037,-718 1728,-718 848,0 1587,420 1982,1043 323,81 619,239 869,455 392,-318 953,-519 1578,-519 336,0 653,59 935,162 314,-102 665,-162 1038,-162 67,0 133,4 198,8 336,-1093 1519,-1901 2926,-1901 697,0 1337,200 1848,533 406,-418 1008,-684 1682,-684 781,0 1466,357 1861,894 108,-96 233,-180 373,-250 -9,-76 -16,-153 -16,-232 0,-1146 1058,-2075 2364,-2075 1240,0 2255,839 2354,1905 467,-154 995,-242 1556,-242 27,0 53,2 80,3 224,-622 898,-1083 1711,-1130 467,-665 1307,-1111 2268,-1111 808,0 1530,314 2017,809 256,-832 1102,-1444 2108,-1444 217,0 426,30 623,83 169,-22 341,-34 517,-34 103,0 205,4 307,12 -1,-20 -4,-40 -4,-61 0,-961 915,-1740 2044,-1740l10 0 10 0 10 0 0 0 10 0 0 0 10 0 0 0 10 0 0 0 10 0 0 0 10 0 0 0 10 0 0 0 10 0 0 0 10 0 0 0 10 1 0 0 10 1 0 0 10 1 0 0 10 1 0 0 10 1 0 0 10 1 0 0 10 1 0 0 10 1 0 0 10 1 0 0 10 1 0 0 10 1 0 0 10 1 0 0 10 1 0 0 10 1 0 0 10 1 0 0 10 1 0 0 10 1 0 0 10 1 0 0 10 1 0 0 10 1 0 0 10 1 0 0 10 1 0 0 10 1 0 0 10 1 0 0 10 2 0 0 10 2 0 0 10 2 0 0 10 2 0 0 10 2 0 0 10 2 0 0 10 2 0 0 10 2 0 0 10 2 0 0 10 2 0 0 10 2 0 0 10 2 0 0 10 2 0 0 10 2 0 0 10 2 0 0 10 2 0 0 10 2 0 0 10 2 0 0 10 2 0 0 10 2 0 0 9 2 0 0 9 2 0 0 9 2 0 0 9 2 0 0c6,1 11,3 17,4l2 0 0 0 9 3 0 0 9 3 0 0 9 3 0 9269z"/>
 </g>
</svg>
